<?xml version="1.0" standalone="no"?>
<!DOCTYPE svg PUBLIC "-//W3C//DTD SVG 20010904//EN"
 "http://www.w3.org/TR/2001/REC-SVG-20010904/DTD/svg10.dtd">
<svg version="1.0" xmlns="http://www.w3.org/2000/svg"
 width="400.000000pt" height="400.000000pt" viewBox="0 0 400.000000 400.000000"
 preserveAspectRatio="xMidYMid meet">
<metadata>
Created by potrace 1.16, written by Peter Selinger 2001-2019
</metadata>
<g transform="translate(0.000000,400.000000) scale(0.100000,-0.100000)"
fill="#000000" stroke="none">
<path d="M2227 3302 c-6 -2 -26 -10 -44 -18 -17 -8 -36 -14 -42 -14 -7 0 -28
-8 -49 -19 -20 -10 -52 -21 -71 -25 -19 -3 -42 -13 -52 -22 -10 -9 -38 -16
-65 -17 -46 -2 -49 0 -66 34 -25 54 -81 72 -169 56 -47 -9 -69 -54 -69 -142 0
-72 8 -64 -95 -84 -27 -5 -70 -18 -95 -28 -38 -15 -76 -18 -240 -18 -179 -1
-200 -3 -258 -24 -76 -29 -174 -121 -217 -206 -26 -53 -28 -61 -22 -151 5 -84
8 -98 33 -127 34 -40 76 -67 134 -87 l45 -15 0 -80 c0 -44 -2 -111 -4 -150 -9
-153 16 -289 69 -375 22 -35 70 -140 70 -152 0 -8 8 -25 17 -38 21 -30 41 -66
79 -140 15 -30 37 -63 49 -75 11 -11 37 -45 57 -75 50 -77 165 -190 193 -190
4 0 21 -6 38 -14 52 -24 178 -64 240 -76 63 -13 73 -25 28 -35 -41 -9 -47 -20
-54 -95 -3 -36 -22 -121 -42 -190 -19 -69 -38 -156 -41 -195 -4 -38 -13 -86
-21 -105 -8 -19 -23 -98 -34 -175 -11 -77 -24 -156 -29 -175 -16 -59 -16 -60
54 -60 l64 0 11 63 c6 35 11 76 11 91 0 93 63 304 92 306 11 0 17 -67 24 -267
l6 -193 62 0 61 0 -3 142 c-1 79 -7 184 -13 233 -6 50 -13 111 -16 136 -6 53
12 77 23 32 4 -15 15 -38 25 -51 10 -13 21 -37 25 -55 4 -18 15 -48 25 -67 11
-19 19 -41 19 -48 0 -8 9 -31 20 -51 11 -20 24 -47 30 -61 5 -14 14 -32 19
-40 5 -8 21 -50 36 -92 l27 -78 65 0 c71 0 72 2 38 70 -7 14 -15 41 -19 60 -6
31 -46 123 -107 242 -11 20 -19 43 -19 49 0 7 -8 31 -19 53 -10 23 -30 75 -45
116 -16 41 -36 93 -46 115 -9 22 -21 55 -25 74 -11 49 -54 143 -77 168 -37 39
-19 51 84 55 81 3 101 7 156 35 34 17 76 34 93 38 34 8 120 44 184 78 58 30
111 74 138 116 67 102 88 147 133 286 14 44 29 92 35 108 5 15 13 39 18 55 49
145 70 561 37 721 l-18 83 34 29 c18 15 40 31 49 34 26 9 77 79 100 136 13 36
22 87 26 155 5 94 4 105 -20 157 -14 31 -38 68 -54 82 -45 41 -146 115 -156
115 -6 0 -18 7 -27 15 -30 27 -167 53 -298 57 -67 2 -128 1 -135 0z m343 -145
c56 -23 123 -66 188 -124 l37 -32 -1 -113 c-1 -124 -9 -152 -64 -207 -41 -41
-63 -39 -110 9 -21 21 -51 42 -67 45 -15 3 -46 10 -68 15 -22 5 -101 15 -177
21 -145 13 -190 9 -363 -31 -44 -10 -109 -21 -144 -24 -76 -7 -197 -45 -307
-98 -45 -21 -87 -38 -94 -38 -6 0 -24 -6 -38 -14 -133 -71 -272 -96 -416 -75
-95 13 -128 34 -150 98 -28 79 -19 114 51 198 81 96 86 98 328 98 195 1 213 3
255 23 25 12 56 22 69 22 35 0 232 50 261 66 27 15 93 39 150 55 19 5 51 19
71 29 20 11 42 20 48 20 11 0 46 15 156 65 21 10 75 14 180 14 134 1 156 -2
205 -22z m-136 -519 c75 -13 80 -15 106 -53 15 -22 38 -71 51 -110 23 -67 24
-81 23 -310 -1 -186 -5 -250 -17 -285 -8 -25 -18 -69 -21 -99 -4 -30 -13 -66
-21 -82 -8 -15 -19 -44 -24 -65 -35 -134 -105 -276 -160 -323 -50 -43 -76 -61
-89 -61 -7 0 -34 -11 -60 -25 -26 -14 -52 -25 -58 -25 -12 0 -82 -28 -153 -62
-36 -17 -55 -20 -112 -15 -37 3 -76 10 -86 16 -11 5 -57 15 -103 21 -46 6 -95
17 -109 25 -14 7 -41 16 -60 20 -78 17 -165 89 -239 199 -26 38 -58 85 -71
105 -30 44 -96 163 -117 211 -14 32 -46 97 -79 160 -39 76 -50 143 -50 315 l0
170 100 6 c98 6 200 29 240 54 11 6 38 18 60 24 69 22 149 55 166 68 9 7 39
20 67 28 29 8 75 22 102 30 28 8 81 19 118 24 137 20 191 31 223 46 41 18 246
14 373 -7z"/>
</g>
</svg>
